<?xml version="1.0" encoding="UTF-8" standalone="no"?>
<svg
   height="18.99995"
   viewBox="0 -960 759.99802 759.99802"
   width="18.99995"
   version="1.1"
   id="svg1"
   xmlns="http://www.w3.org/2000/svg"
   xmlnsSvg="http://www.w3.org/2000/svg">
  <defs
     id="defs1" />
  <path
     d="m 173.077,-373.079 276.152,-137.692 137.692,-276.152 -276.152,137.692 z m 206.922,-166.922 q -17,0 -28.5,-11.5 -11.5,-11.5 -11.5,-28.5 0,-17 11.5,-28.5 11.5,-11.5 28.5,-11.5 17,0 28.5,11.5 11.5,11.5 11.5,28.5 0,17 -11.5,28.5 -11.5,11.5 -28.5,11.5 z m 0.067,339.999 q -78.836,0 -148.204,-29.92 -69.369,-29.92 -120.682,-81.21 Q 59.866,-362.423 29.933,-431.761 0,-501.098 0,-579.934 0,-658.77 29.92,-728.138 59.84,-797.507 111.13,-848.82 162.421,-900.134 231.759,-930.067 301.096,-960 379.932,-960 q 78.836,0 148.204,29.92 69.369,29.92 120.682,81.21 51.314,51.291 81.247,120.629 29.933,69.337 29.933,148.173 0,78.836 -29.92,148.204 -29.92,69.369 -81.21,120.682 -51.291,51.314 -120.629,81.247 -69.337,29.933 -148.173,29.933 z m -0.067,-59.999 q 134,0 227,-93 93,-93 93,-227 0,-134 -93,-227 -93,-93 -227,-93 -134,0 -227,93 -93,93 -93,227 0,134 93,227 93,93 227,93 z m 0,-320 z"
     id="path1"
     style="fill:#999999" />
</svg>
