<?xml version="1.0" encoding="UTF-8" standalone="no"?>
<svg
   height="18.153725"
   viewBox="0 -960 744.61197 726.14899"
   width="18.615299"
   version="1.1"
   id="svg1"
   xmlns="http://www.w3.org/2000/svg"
   xmlnsSvg="http://www.w3.org/2000/svg">
  <defs
     id="defs1" />
  <path
     d="m 176.922,-375.388 q -15.039,0 -25.212,-10.173 -10.173,-10.173 -10.173,-25.211 v -59.999 h 494.999 l 12.693,12.693 v -361.923 h 59.998 q 15.039,0 25.212,10.173 10.173,10.173 10.173,25.211 v 550.766 L 603.075,-375.388 Z M 0,-409.234 V -924.615 Q 0,-939.654 10.173,-949.827 20.346,-960 35.385,-960 h 498.46 q 15.038,0 25.211,10.173 10.173,10.173 10.173,25.212 v 338.46 q 0,15.038 -10.173,25.211 -10.173,10.173 -25.211,10.173 H 141.537 Z M 509.23,-610.77 V -900.001 H 59.999 v 316.926 l 27.694,-27.695 z m -449.231,0 v -289.231 z"
     id="path1"
     style="fill:#999999" />
</svg>
