<?xml version="1.0" encoding="UTF-8" standalone="no"?>
<svg
   height="48"
   viewBox="0 -960 960 960"
   width="48"
   version="1.1"
   id="svg1"
   sodipodi:docname="Post_checked.svg"
   inkscape:version="1.3.1 (91b66b0783, 2023-11-16)"
   xml:space="preserve"
   xmlns:inkscape="http://www.inkscape.org/namespaces/inkscape"
   xmlns:sodipodi="http://sodipodi.sourceforge.net/DTD/sodipodi-0.dtd"
   xmlns="http://www.w3.org/2000/svg"
   xmlns:svg="http://www.w3.org/2000/svg"><defs
     id="defs1" /><sodipodi:namedview
     id="namedview1"
     pagecolor="#ffffff"
     bordercolor="#000000"
     borderopacity="0.25"
     inkscape:showpageshadow="2"
     inkscape:pageopacity="0.0"
     inkscape:pagecheckerboard="0"
     inkscape:deskcolor="#d1d1d1"
     inkscape:zoom="15.395833"
     inkscape:cx="25.981055"
     inkscape:cy="17.504736"
     inkscape:window-width="1920"
     inkscape:window-height="974"
     inkscape:window-x="-11"
     inkscape:window-y="-11"
     inkscape:window-maximized="1"
     inkscape:current-layer="svg1" /><text
     xml:space="preserve"
     style="font-style:normal;font-variant:normal;font-weight:normal;font-stretch:normal;font-size:127.66px;font-family:Armata;-inkscape-font-specification:Armata;text-align:center;text-anchor:middle;fill:none;stroke:#cdcdcd;stroke-width:48.2495;paint-order:stroke fill markers"
     x="272.75211"
     y="-324.34714"
     id="text2"><tspan
       sodipodi:role="line"
       id="tspan2"
       style="font-style:normal;font-variant:normal;font-weight:normal;font-stretch:normal;font-family:Armata;-inkscape-font-specification:Armata;stroke-width:48.2495"
       x="272.75211"
       y="-324.34714" /></text><text
     xml:space="preserve"
     style="font-style:normal;font-variant:normal;font-weight:normal;font-stretch:normal;font-size:212.767px;line-height:0;font-family:Armata;-inkscape-font-specification:Armata;text-align:center;letter-spacing:3.1915px;text-anchor:middle;fill:#ececec;stroke:#cdcdcd;stroke-width:48.2495;stroke-opacity:0;paint-order:stroke fill markers"
     x="482.61423"
     y="-176.63179"
     id="text3"><tspan
       sodipodi:role="line"
       id="tspan3"
       style="font-style:normal;font-variant:normal;font-weight:normal;font-stretch:normal;font-size:212.767px;line-height:0;font-family:Roboto;-inkscape-font-specification:Roboto;letter-spacing:3.1915px;fill:#ececec;stroke:#cdcdcd;stroke-width:48.2495;stroke-opacity:0"
       x="484.20999"
       y="-176.63179">Add Post</tspan></text><path
     d="m 472.71866,-587.03044 h 14.71219 v -108.33344 h 108.33518 v -14.71196 H 487.43085 v -109.67091 h -14.71219 v 109.67091 H 363.04601 v 14.71196 h 109.67265 z m 6.9816,116.35816 c -32.50413,0 -62.7604,-6.10568 -90.76881,-18.31705 -28.00888,-12.21181 -52.6052,-28.89605 -73.78897,-50.05273 -21.18331,-21.15712 -37.88856,-45.73856 -50.11573,-73.74433 -12.22715,-28.00531 -18.34073,-58.27871 -18.34073,-90.82021 0,-32.09568 6.10578,-62.27568 18.31733,-90.54001 12.21202,-28.26433 28.89653,-52.87653 50.05354,-73.8366 21.15745,-20.96052 45.73929,-37.55428 73.7455,-49.78128 28.00574,-12.22695 58.27962,-18.34042 90.82163,-18.34042 32.09619,0 62.27668,6.10568 90.54147,18.31703 28.26478,12.21183 52.87737,28.78463 73.83778,49.7184 20.96084,20.93421 37.55484,45.55109 49.78201,73.85065 12.22716,28.29955 18.34074,58.47821 18.34074,90.536 0,32.5036 -6.10578,62.75939 -18.31733,90.76738 -12.21202,28.00843 -28.78507,52.56312 -49.71916,73.66409 -20.93455,21.10138 -45.55182,37.80658 -73.85182,50.11559 -28.3,12.30899 -58.47915,18.46349 -90.53745,18.46349 z"
     id="path1-3"
     style="fill:#ececec;stroke-width:0.668731"
     sodipodi:nodetypes="cccccccccccccscccscscscssscsss" /></svg>
