<?xml version="1.0" encoding="UTF-8" standalone="no"?>
<svg
   height="48"
   viewBox="0 -960 960 960"
   width="48"
   version="1.1"
   id="svg1"
   sodipodi:docname="Post.svg"
   inkscape:version="1.3.1 (91b66b0783, 2023-11-16)"
   xml:space="preserve"
   xmlns:inkscape="http://www.inkscape.org/namespaces/inkscape"
   xmlns:sodipodi="http://sodipodi.sourceforge.net/DTD/sodipodi-0.dtd"
   xmlns="http://www.w3.org/2000/svg"
   xmlns:svg="http://www.w3.org/2000/svg"><defs
     id="defs1" /><sodipodi:namedview
     id="namedview1"
     pagecolor="#ffffff"
     bordercolor="#000000"
     borderopacity="0.25"
     inkscape:showpageshadow="2"
     inkscape:pageopacity="0.0"
     inkscape:pagecheckerboard="0"
     inkscape:deskcolor="#d1d1d1"
     inkscape:zoom="10.886498"
     inkscape:cx="19.657377"
     inkscape:cy="20.530018"
     inkscape:window-width="1920"
     inkscape:window-height="974"
     inkscape:window-x="-11"
     inkscape:window-y="-11"
     inkscape:window-maximized="1"
     inkscape:current-layer="svg1" /><text
     xml:space="preserve"
     style="font-style:normal;font-variant:normal;font-weight:normal;font-stretch:normal;font-size:127.66px;font-family:Armata;-inkscape-font-specification:Armata;text-align:center;text-anchor:middle;fill:none;stroke:#cdcdcd;stroke-width:48.2495;paint-order:stroke fill markers"
     x="272.75211"
     y="-324.34714"
     id="text2"><tspan
       sodipodi:role="line"
       id="tspan2"
       style="font-style:normal;font-variant:normal;font-weight:normal;font-stretch:normal;font-family:Armata;-inkscape-font-specification:Armata;stroke-width:48.2495"
       x="272.75211"
       y="-324.34714" /></text><text
     xml:space="preserve"
     style="font-style:normal;font-variant:normal;font-weight:normal;font-stretch:normal;font-size:212.767px;line-height:0;font-family:Armata;-inkscape-font-specification:Armata;text-align:center;letter-spacing:3.1915px;text-anchor:middle;fill:#cccccc;stroke:#cdcdcd;stroke-width:48.2495;stroke-opacity:0;paint-order:stroke fill markers"
     x="482.61423"
     y="-176.63179"
     id="text3"><tspan
       sodipodi:role="line"
       id="tspan3"
       style="font-style:normal;font-variant:normal;font-weight:normal;font-stretch:normal;font-size:212.767px;line-height:0;font-family:Roboto;-inkscape-font-specification:Roboto;letter-spacing:3.1915px;fill:#cccccc;stroke:#cdcdcd;stroke-width:48.2495;stroke-opacity:0"
       x="484.20999"
       y="-176.63179">Add Post</tspan></text><path
     d="m 472.71866,-587.03044 h 14.71219 v -108.33344 h 108.33518 v -14.71196 H 487.43085 v -109.67091 h -14.71219 v 109.67091 H 363.04601 v 14.71196 h 109.67265 z m 6.9816,116.35816 q -48.7562,0 -90.76881,-18.31705 -42.01332,-18.31771 -73.78897,-50.05273 -31.77497,-31.73568 -50.11573,-73.74433 -18.34073,-42.00796 -18.34073,-90.82021 0,-48.14352 18.31733,-90.54001 18.31803,-42.3965 50.05354,-73.8366 31.73618,-31.44078 73.7455,-49.78128 42.00861,-18.34042 90.82163,-18.34042 48.14429,0 90.54147,18.31703 42.39717,18.31774 73.83778,49.7184 31.44126,31.40131 49.78201,73.85065 18.34074,42.44932 18.34074,90.536 0,48.7554 -18.31733,90.76738 -18.31803,42.01264 -49.71916,73.66409 -31.40182,31.65207 -73.85182,50.11559 -42.45,18.46349 -90.53745,18.46349 z m 0.0402,-14.71195 q 90.61365,0 154.14354,-63.52888 63.5299,-63.52888 63.5299,-154.80985 0,-90.61223 -63.40417,-154.14112 -63.40483,-63.52885 -154.60365,-63.52885 -90.94804,0 -154.47792,63.40313 -63.52989,63.40383 -63.52989,154.6012 0,90.94661 63.52989,154.47549 63.52988,63.52888 154.8123,63.52888 z m -0.33438,-218.00437 z"
     id="path1-3"
     style="fill:#cccccc;stroke-width:0.668731" /></svg>
